:SAMPLES-PER-SECOND 30
:FULLY-SPECIFIED
:DEGREES
115
root  -40.928 40.2312 -13.026 173.233 -32.849 174.253
RightUpLeg  -20.7854 -4.86608 -6.41904
RightLeg  35.7592 -3.91936 -3.25983
RightFoot  1.22607 -0.58763 5.40369
RightToes  -1.16417e-010 0 -3.6325e-017
Spine  7.31944 -1.5223 -2.8853
Spine1  10.0083 -1.94591 -0.348422
HEad  -8.90342 3.76263 -2.33973
LeftShoulder1  8.17992 -11.3626 -48.0194
LeftArm  -12.7931 7.05 -21.0425
LeftForeArm  27.7002 -41.382 -8.04933
LeftHand  -0.244104 0.0205437 5.32207
RightShoulder  6.34891 9.83039 41.3895
RightArm  5.52385 -22.3054 29.4759
RightForeArm  7.29819 14.3193 7.24038
RightHand  -0.997879 2.46149 -14.8998
LeftUpLeg  5.43901 7.21297 -6.64117
LeftLeg  16.5163 4.80916 -0.887711
LeftFoot  -11.8792 0.0957255 5.01859
LeftToes  5.72949e-011 -1.2716e-010 -5.73128e-012
116
root  -41.7396 40.0357 -14.201 173.98 -34.5632 173.625
RightUpLeg  -20.4413 -8.32009 -6.34069
RightLeg  23.7167 -4.23336 -2.36237
RightFoot  0.901188 -0.578203 5.4436
RightToes  -1.16417e-010 0 -3.6325e-017
Spine  6.5183 -1.86489 -4.51477
Spine1  9.98831 -2.65169 0.986698
HEad  -8.5828 3.26879 -2.01744
LeftShoulder1  8.09443 -11.297 -47.7237
LeftArm  -14.8305 5.86447 -20.6513
LeftForeArm  29.9218 -46.6448 -9.71184
LeftHand  -0.244104 0.0205437 5.32207
RightShoulder  5.99725 9.46515 40.1007
RightArm  4.63346 -26.3385 29.0845
RightForeArm  7.58959 14.7015 6.89799
RightHand  -0.984589 2.27739 -15.0439
LeftUpLeg  7.06601 7.19099 -7.16305
LeftLeg  17.3854 3.29339 -0.806535
LeftFoot  -14.0061 0.209862 5.37584
LeftToes  5.72949e-011 -1.2716e-010 -5.73128e-012
117
root  -42.535 39.8484 -15.3807 174.725 -36.1951 172.947
RightUpLeg  -19.3183 -11.2534 -6.48125
RightLeg  11.3232 -4.86532 -0.347275
RightFoot  0.952027 -0.571089 5.35199
RightToes  -1.16417e-010 0 -3.6325e-017
Spine  5.79282 -2.12832 -5.93653
Spine1  10.0425 -3.23441 2.37832
HEad  -8.27501 2.54409 -1.62637
LeftShoulder1  7.97237 -11.1872 -47.3488
LeftArm  -16.466 5.00877 -20.7113
LeftForeArm  32.382 -50.9603 -11.299
LeftHand  -0.244104 0.0205437 5.32207
RightShoulder  5.77163 9.18705 39.3753
RightArm  0.815434 -29.1755 28.5218
RightForeArm  10.386 12.4052 7.08115
RightHand  -0.889409 1.78669 -14.5039
LeftUpLeg  8.96475 7.00775 -7.68789
LeftLeg  17.7758 2.01549 -0.550395
LeftFoot  -15.7636 0.316848 5.74764
LeftToes  5.72949e-011 -1.2716e-010 -5.73128e-012
118
root  -43.3745 39.5829 -16.6202 175.215 -37.4665 172.428
RightUpLeg  -17.3667 -8.83932 -8.52333
RightLeg  0.555886 -8.87411 3.26433
RightFoot  0.637851 -0.642091 6.18539
RightToes  -1.16417e-010 0 -3.6325e-017
Spine  4.92965 -2.30044 -6.48078
Spine1  10.2957 -3.46904 2.85795
HEad  -8.03148 1.63898 -1.23725
LeftShoulder1  7.8649 -11.0546 -47.1309
LeftArm  -16.9628 4.01021 -20.7435
LeftForeArm  33.9652 -53.4909 -12.3807
LeftHand  -0.244104 0.0205437 5.32207
RightShoulder  5.68468 9.01867 39.2949
RightArm  -3.94127 -31.0051 27.8382
RightForeArm  13.9147 8.61147 6.75968
RightHand  -0.758668 1.1511 -13.5684
LeftUpLeg  11.113 6.84522 -7.86613
LeftLeg  18.4096 1.07765 -0.310234
LeftFoot  -18.1305 0.423759 5.34281
LeftToes  5.72949e-011 -1.2716e-010 -5.73128e-012
119
root  -44.2764 39.2154 -17.9669 175.585 -38.2605 172.057
RightUpLeg  -16.4311 -9.02506 -8.79478
RightLeg  -4.53085 -7.8538 4.64611
RightFoot  -0.944975 -0.747027 8.10909
RightToes  -1.16417e-010 0 -3.6325e-017
Spine  3.63339 -2.38108 -6.43521
Spine1  10.6922 -3.41795 2.65799
HEad  -7.8222 0.823945 -1.16284
LeftShoulder1  7.8036 -10.9572 -47.0764
LeftArm  -16.6022 3.20467 -20.8252
LeftForeArm  34.6807 -54.1512 -12.6704
LeftHand  -0.244104 0.0205437 5.32207
RightShoulder  5.64273 8.9261 39.295
RightArm  -7.2755 -32.2146 27.617
RightForeArm  15.2049 5.08732 5.56694
RightHand  -0.646232 0.334514 -13.1789
LeftUpLeg  13.1836 7.32146 -7.47385
LeftLeg  19.7896 -0.166743 -0.302227
LeftFoot  -20.6738 0.462822 4.14266
LeftToes  5.72949e-011 -1.2716e-010 -5.73128e-012
